<?xml version="1.0" encoding="iso-8859-1"?>
<!-- Generator: Adobe Illustrator 19.0.0, SVG Export Plug-In . SVG Version: 6.00 Build 0)  -->
<svg version="1.1" id="Capa_1" xmlns="http://www.w3.org/2000/svg" xmlns:xlink="http://www.w3.org/1999/xlink" x="0px" y="0px"
	 viewBox="0 0 512 512" style="enable-background:new 0 0 512 512;" xml:space="preserve">
<g>
	<g>
		<g>
			<path d="M256,316c33.084,0,60-26.916,60-60c0-23.211-31.257-129.653-40.837-161.725c-0.006-0.02-0.014-0.038-0.02-0.057
				c-0.083-0.276-0.185-0.542-0.28-0.813c-0.105-0.302-0.21-0.604-0.329-0.898c-0.106-0.262-0.222-0.518-0.339-0.774
				c-0.137-0.302-0.279-0.599-0.43-0.892c-0.119-0.23-0.24-0.457-0.367-0.682c-0.183-0.324-0.378-0.64-0.578-0.952
				c-0.117-0.182-0.229-0.366-0.352-0.543c-0.284-0.413-0.585-0.813-0.898-1.201c-0.055-0.069-0.105-0.142-0.161-0.21
				c-0.379-0.458-0.78-0.896-1.197-1.317c-0.115-0.117-0.239-0.225-0.357-0.339c-0.306-0.294-0.617-0.581-0.941-0.855
				c-0.169-0.143-0.343-0.28-0.517-0.418c-0.289-0.229-0.584-0.449-0.885-0.662c-0.196-0.138-0.392-0.276-0.594-0.407
				c-0.305-0.199-0.617-0.385-0.932-0.566c-0.203-0.117-0.401-0.24-0.608-0.35c-0.467-0.248-0.945-0.479-1.432-0.69
				c-0.216-0.094-0.438-0.174-0.658-0.26c-0.366-0.143-0.733-0.283-1.108-0.405c-0.241-0.078-0.486-0.144-0.73-0.213
				c-0.344-0.098-0.689-0.188-1.04-0.267c-0.245-0.055-0.49-0.106-0.738-0.152c-0.388-0.073-0.781-0.13-1.176-0.179
				c-0.212-0.026-0.422-0.059-0.636-0.078C257.247,80.037,256.627,80,256,80c-97.047,0-176,78.953-176,176s78.953,176,176,176
				c96.6,0,175.261-78.231,175.983-174.664c0.002-0.113,0.017-0.222,0.017-0.336c0-0.153-0.006-0.306-0.007-0.459
				c0-0.181,0.007-0.36,0.007-0.541c0-0.142-0.018-0.28-0.021-0.421c-0.223-27.406-6.886-54.651-19.33-78.883
				c-12.239-23.832-30.094-44.906-51.633-60.943c-8.858-6.596-21.388-4.762-27.986,4.098c-6.596,8.86-4.762,21.39,4.098,27.986
				c34.747,25.87,54.722,65.467,54.866,108.695C391.705,331.278,330.813,392,256,392c-74.991,0-136-61.01-136-136
				c0-65.55,46.617-120.416,108.439-133.191C215.523,167.328,196,237.655,196,256C196,289.084,222.916,316,256,316z
				 M255.988,172.365C267.23,213.101,275.922,248.006,276,256c0,11.028-8.972,20-20,20s-20-8.972-20-19.991
				C236.08,247.865,244.674,213.297,255.988,172.365z"/>
			<path d="M437.02,74.98C388.667,26.629,324.38,0,256,0S123.333,26.629,74.98,74.98C26.629,123.333,0,187.62,0,256
				s26.629,132.667,74.98,181.02C123.333,485.371,187.62,512,256,512c46.813,0,92.618-12.758,132.461-36.893
				c9.448-5.724,12.467-18.022,6.744-27.469c-5.723-9.448-18.022-12.468-27.468-6.744C334.144,461.244,295.506,472,256,472
				c-119.103,0-216-96.897-216-216S136.897,40,256,40s216,96.897,216,216c0,42.589-12.665,84.044-36.627,119.884
				c-6.139,9.182-3.672,21.603,5.511,27.742c9.183,6.139,21.603,3.672,27.742-5.51C497.001,355.674,512,306.53,512,256
				C512,187.62,485.371,123.333,437.02,74.98z"/>
		</g>
	</g>
</g>
<g>
</g>
<g>
</g>
<g>
</g>
<g>
</g>
<g>
</g>
<g>
</g>
<g>
</g>
<g>
</g>
<g>
</g>
<g>
</g>
<g>
</g>
<g>
</g>
<g>
</g>
<g>
</g>
<g>
</g>
</svg>
