<?xml version="1.0" encoding="iso-8859-1"?>
<!-- Generator: Adobe Illustrator 19.0.0, SVG Export Plug-In . SVG Version: 6.00 Build 0)  -->
<svg version="1.1" id="Capa_1" xmlns="http://www.w3.org/2000/svg" xmlns:xlink="http://www.w3.org/1999/xlink" x="0px" y="0px"
	 viewBox="0 0 512 512" style="enable-background:new 0 0 512 512;" xml:space="preserve">
<g>
	<g>
		<g>
			<path d="M94.22,236.856c-0.279,0.084-0.548,0.187-0.822,0.283c-0.299,0.104-0.597,0.208-0.888,0.325
				c-0.264,0.107-0.522,0.224-0.78,0.342c-0.299,0.136-0.595,0.277-0.886,0.427c-0.231,0.119-0.46,0.241-0.687,0.37
				c-0.322,0.182-0.636,0.376-0.946,0.574c-0.184,0.118-0.37,0.232-0.549,0.355c-0.41,0.282-0.806,0.581-1.192,0.891
				c-0.072,0.058-0.148,0.109-0.219,0.168c-0.457,0.379-0.894,0.779-1.315,1.195c-0.118,0.117-0.227,0.242-0.342,0.361
				c-0.293,0.305-0.579,0.615-0.852,0.937c-0.144,0.17-0.281,0.345-0.42,0.52c-0.228,0.288-0.448,0.582-0.66,0.883
				c-0.139,0.197-0.276,0.394-0.408,0.595c-0.198,0.304-0.383,0.615-0.565,0.929c-0.118,0.203-0.241,0.403-0.351,0.61
				c-0.248,0.467-0.478,0.944-0.689,1.431c-0.094,0.217-0.174,0.44-0.26,0.66c-0.143,0.365-0.283,0.731-0.405,1.106
				c-0.078,0.241-0.144,0.487-0.214,0.732c-0.097,0.344-0.188,0.689-0.267,1.039c-0.055,0.245-0.106,0.49-0.152,0.738
				c-0.073,0.388-0.13,0.781-0.179,1.176c-0.026,0.212-0.059,0.422-0.078,0.636C80.037,254.753,80,255.373,80,256
				c0,97.047,78.953,176,176,176c96.6,0,175.261-78.231,175.983-174.664c0.002-0.113,0.017-0.222,0.017-0.336
				c0-0.153-0.006-0.306-0.007-0.459c0-0.181,0.007-0.36,0.007-0.541c0-0.142-0.018-0.28-0.021-0.421
				c-0.224-27.406-6.886-54.651-19.33-78.883c-12.239-23.832-30.094-44.906-51.633-60.943c-8.858-6.596-21.389-4.762-27.986,4.098
				c-6.596,8.86-4.762,21.39,4.098,27.986c34.747,25.87,54.722,65.467,54.866,108.695C391.705,331.278,330.813,392,256,392
				c-65.551,0-120.416-46.617-133.191-108.439C167.327,296.477,237.656,316,256,316c33.084,0,60-26.916,60-60s-26.916-60-60-60
				c-23.21,0-129.654,31.257-161.724,40.837C94.257,236.843,94.239,236.85,94.22,236.856z M256,236c11.028,0,20,8.972,20,20
				s-8.972,20-19.992,20c-8.143-0.079-42.711-8.674-83.644-19.988C213.101,244.77,248.006,236.078,256,236z"/>
			<path d="M437.02,74.98C388.667,26.629,324.38,0,256,0S123.333,26.629,74.98,74.98C26.629,123.333,0,187.62,0,256
				s26.629,132.667,74.98,181.02C123.333,485.371,187.62,512,256,512c46.813,0,92.618-12.758,132.461-36.893
				c9.448-5.724,12.467-18.022,6.744-27.469c-5.723-9.448-18.021-12.468-27.468-6.744C334.144,461.244,295.506,472,256,472
				c-119.103,0-216-96.897-216-216S136.897,40,256,40s216,96.897,216,216c0,42.589-12.665,84.044-36.627,119.884
				c-6.139,9.182-3.672,21.603,5.511,27.742c9.182,6.139,21.603,3.672,27.742-5.51C497.001,355.674,512,306.53,512,256
				C512,187.62,485.371,123.333,437.02,74.98z"/>
			<path d="M275.749,122.421c0.976,0.142,1.943,0.211,2.901,0.211c9.772,0,18.321-7.172,19.767-17.127
				c1.588-10.931-5.985-21.08-16.916-22.668C273.113,81.618,264.533,81,256,81c-11.046,0-20,8.954-20,20s8.954,20,20,20
				C262.615,121,269.26,121.479,275.749,122.421z"/>
		</g>
	</g>
</g>
<g>
</g>
<g>
</g>
<g>
</g>
<g>
</g>
<g>
</g>
<g>
</g>
<g>
</g>
<g>
</g>
<g>
</g>
<g>
</g>
<g>
</g>
<g>
</g>
<g>
</g>
<g>
</g>
<g>
</g>
</svg>
