<?xml version="1.0" encoding="iso-8859-1"?>
<!-- Generator: Adobe Illustrator 19.0.0, SVG Export Plug-In . SVG Version: 6.00 Build 0)  -->
<svg version="1.1" id="Capa_1" xmlns="http://www.w3.org/2000/svg" xmlns:xlink="http://www.w3.org/1999/xlink" x="0px" y="0px"
	 viewBox="0 0 512 512" style="enable-background:new 0 0 512 512;" xml:space="preserve">
<g>
	<g>
		<g>
			<path d="M437.02,74.98C388.667,26.629,324.38,0,256,0S123.333,26.629,74.98,74.98C26.629,123.333,0,187.62,0,256
				s26.629,132.667,74.98,181.02C123.333,485.371,187.62,512,256,512c46.813,0,92.618-12.758,132.461-36.893
				c9.448-5.724,12.467-18.022,6.744-27.469c-5.723-9.448-18.021-12.468-27.468-6.744C334.144,461.244,295.506,472,256,472
				c-119.103,0-216-96.897-216-216S136.897,40,256,40s216,96.897,216,216c0,42.589-12.665,84.044-36.627,119.884
				c-6.139,9.182-3.672,21.603,5.511,27.742c9.183,6.139,21.603,3.672,27.742-5.51C497.001,355.674,512,306.53,512,256
				C512,187.62,485.371,123.333,437.02,74.98z"/>
			<path d="M196,256c0,23.211,31.257,129.653,40.837,161.725c0.006,0.02,0.014,0.038,0.02,0.057
				c0.083,0.276,0.185,0.542,0.279,0.813c0.105,0.302,0.21,0.604,0.329,0.898c0.106,0.262,0.222,0.518,0.339,0.774
				c0.137,0.302,0.279,0.599,0.43,0.892c0.119,0.23,0.24,0.457,0.367,0.682c0.183,0.324,0.378,0.639,0.578,0.951
				c0.117,0.182,0.23,0.367,0.353,0.545c0.284,0.412,0.584,0.811,0.897,1.199c0.056,0.069,0.105,0.143,0.162,0.211
				c0.379,0.458,0.78,0.896,1.197,1.317c0.116,0.117,0.239,0.225,0.357,0.339c0.306,0.294,0.617,0.581,0.941,0.855
				c0.169,0.143,0.343,0.28,0.517,0.418c0.289,0.229,0.584,0.449,0.885,0.662c0.196,0.138,0.392,0.276,0.594,0.407
				c0.305,0.199,0.617,0.385,0.932,0.566c0.202,0.117,0.401,0.24,0.608,0.35c0.467,0.248,0.945,0.479,1.432,0.69
				c0.217,0.094,0.44,0.174,0.66,0.26c0.365,0.143,0.731,0.283,1.105,0.404c0.241,0.078,0.487,0.145,0.732,0.214
				c0.344,0.097,0.689,0.188,1.039,0.267c0.245,0.055,0.49,0.106,0.738,0.152c0.388,0.073,0.781,0.13,1.176,0.179
				c0.212,0.026,0.422,0.059,0.636,0.078c0.615,0.057,1.235,0.094,1.862,0.094c96.6,0,175.261-78.231,175.983-174.664
				c0.002-0.113,0.017-0.222,0.017-0.336c0-0.153-0.006-0.306-0.007-0.459c0-0.181,0.007-0.36,0.007-0.541
				c0-0.142-0.018-0.28-0.021-0.421c-0.224-27.406-6.886-54.651-19.33-78.883c-12.239-23.832-30.094-44.906-51.633-60.943
				c-8.858-6.596-21.389-4.762-27.986,4.098c-6.596,8.86-4.762,21.39,4.098,27.986c34.747,25.87,54.722,65.467,54.866,108.695
				c-0.252,65.315-46.778,119.919-108.432,132.66C296.477,344.672,316,274.345,316,256c0-33.084-26.916-60-60-60
				S196,222.916,196,256z M256,236c11.028,0,20,8.972,20,19.991c-0.08,8.144-8.674,42.712-19.988,83.644
				C244.77,298.899,236.078,263.994,236,256C236,244.972,244.972,236,256,236z"/>
			<path d="M275.749,122.421c0.976,0.142,1.943,0.211,2.901,0.211c9.772,0,18.321-7.172,19.767-17.127
				c1.588-10.931-5.985-21.08-16.916-22.668C273.113,81.618,264.533,81,256,81c-11.046,0-20,8.954-20,20s8.954,20,20,20
				C262.615,121,269.26,121.479,275.749,122.421z"/>
		</g>
	</g>
</g>
<g>
</g>
<g>
</g>
<g>
</g>
<g>
</g>
<g>
</g>
<g>
</g>
<g>
</g>
<g>
</g>
<g>
</g>
<g>
</g>
<g>
</g>
<g>
</g>
<g>
</g>
<g>
</g>
<g>
</g>
</svg>
