<?xml version="1.0" encoding="iso-8859-1"?>
<!-- Generator: Adobe Illustrator 19.0.0, SVG Export Plug-In . SVG Version: 6.00 Build 0)  -->
<svg version="1.1" id="Capa_1" xmlns="http://www.w3.org/2000/svg" xmlns:xlink="http://www.w3.org/1999/xlink" x="0px" y="0px"
	 viewBox="0 0 512 512" style="enable-background:new 0 0 512 512;" xml:space="preserve">
<g>
	<g>
		<g>
			<path d="M412.649,175.695c-12.239-23.832-30.094-44.906-51.633-60.943c-8.858-6.595-21.389-4.761-27.986,4.098
				c-6.596,8.86-4.761,21.389,4.098,27.986c27.332,20.35,45.524,49.194,52.115,81.618C344.727,215.538,274.351,196,256,196
				c-33.084,0-60,26.916-60,60s26.916,60,60,60c23.21,0,129.654-31.257,161.724-40.837c0.019-0.006,0.037-0.013,0.056-0.019
				c0.279-0.085,0.549-0.187,0.822-0.283c0.298-0.104,0.597-0.208,0.888-0.325c0.264-0.107,0.522-0.224,0.78-0.342
				c0.3-0.136,0.595-0.277,0.886-0.427c0.232-0.12,0.461-0.242,0.687-0.37c0.322-0.182,0.635-0.375,0.945-0.574
				c0.184-0.118,0.37-0.232,0.55-0.356c0.41-0.282,0.806-0.58,1.191-0.89c0.071-0.057,0.148-0.109,0.219-0.168
				c0.458-0.379,0.895-0.779,1.315-1.195c0.118-0.116,0.227-0.241,0.343-0.36c0.293-0.305,0.579-0.615,0.852-0.937
				c0.144-0.17,0.282-0.345,0.42-0.52c0.228-0.289,0.448-0.582,0.66-0.883c0.139-0.196,0.276-0.393,0.408-0.595
				c0.198-0.303,0.383-0.615,0.565-0.929c0.117-0.203,0.24-0.402,0.351-0.61c0.248-0.467,0.478-0.944,0.689-1.431
				c0.094-0.217,0.175-0.44,0.261-0.661c0.143-0.365,0.282-0.731,0.404-1.105c0.079-0.241,0.145-0.487,0.214-0.732
				c0.097-0.344,0.188-0.689,0.267-1.039c0.055-0.245,0.106-0.49,0.152-0.738c0.072-0.389,0.129-0.781,0.179-1.176
				c0.026-0.212,0.058-0.422,0.078-0.636c0.057-0.615,0.094-1.235,0.094-1.862C432,228.115,425.308,200.347,412.649,175.695z
				 M255.999,276c-11.028,0-20-8.972-20-20s8.972-20,19.992-20c8.143,0.079,42.711,8.674,83.644,19.988
				C298.899,267.23,263.994,275.922,255.999,276z"/>
			<path d="M275.749,121.421c0.976,0.142,1.943,0.211,2.901,0.211c9.772,0,18.321-7.172,19.767-17.127
				c1.588-10.931-5.985-21.08-16.916-22.668C273.113,80.618,264.533,80,256,80c-11.046,0-20,8.954-20,20s8.954,20,20,20
				C262.615,120,269.26,120.479,275.749,121.421z"/>
			<path d="M437.02,74.98C388.667,26.629,324.38,0,256,0S123.333,26.629,74.98,74.98C26.629,123.333,0,187.62,0,256
				s26.629,132.667,74.98,181.02C123.333,485.371,187.62,512,256,512c46.813,0,92.618-12.758,132.462-36.894
				c9.448-5.724,12.467-18.021,6.744-27.469c-5.723-9.448-18.021-12.468-27.468-6.744C334.144,461.244,295.506,472,256,472
				c-119.103,0-216-96.897-216-216S136.897,40,256,40s216,96.897,216,216c0,42.589-12.665,84.044-36.626,119.884
				c-6.139,9.183-3.672,21.604,5.511,27.742c9.183,6.14,21.604,3.672,27.742-5.51C497.001,355.674,512,306.53,512,256
				C512,187.62,485.371,123.333,437.02,74.98z"/>
		</g>
	</g>
</g>
<g>
</g>
<g>
</g>
<g>
</g>
<g>
</g>
<g>
</g>
<g>
</g>
<g>
</g>
<g>
</g>
<g>
</g>
<g>
</g>
<g>
</g>
<g>
</g>
<g>
</g>
<g>
</g>
<g>
</g>
</svg>
