<?xml version="1.0" encoding="iso-8859-1"?>
<!-- Generator: Adobe Illustrator 19.0.0, SVG Export Plug-In . SVG Version: 6.00 Build 0)  -->
<svg version="1.1" id="Layer_1" xmlns="http://www.w3.org/2000/svg" xmlns:xlink="http://www.w3.org/1999/xlink" x="0px" y="0px"
	 viewBox="0 0 512 512" style="enable-background:new 0 0 512 512;" xml:space="preserve">
<g>
	<g>
		<g>
			<path d="M445.76,0H66.24C29.663,0,0,29.653,0,66.24v379.52C0,482.347,29.663,512,66.24,512h379.52
				c36.593,0,66.24-29.647,66.24-66.24V66.24C512,29.647,482.353,0,445.76,0z M469.333,445.76c0,13.029-10.545,23.573-23.573,23.573
				H66.24c-13.016,0-23.573-10.554-23.573-23.573V66.24c0-13.02,10.557-23.573,23.573-23.573h379.52
				c13.029,0,23.573,10.545,23.573,23.573V445.76z"/>
			<path d="M213.335,170.667c-11.782,0-21.333,9.551-21.333,21.333v42.667h-42.667V192c0-11.782-9.551-21.333-21.333-21.333
				c-11.782,0-21.333,9.551-21.333,21.333v128c0,11.782,9.551,21.333,21.333,21.333c11.782,0,21.333-9.551,21.333-21.333v-42.667
				h42.667V320c0,11.782,9.551,21.333,21.333,21.333c11.782,0,21.333-9.551,21.333-21.333V192
				C234.669,180.218,225.118,170.667,213.335,170.667z"/>
			<path d="M320.002,170.667h-21.333c-11.782,0-21.333,9.551-21.333,21.333v128c0,11.782,9.551,21.333,21.333,21.333h21.333
				c47.131,0,85.333-38.202,85.333-85.333S367.134,170.667,320.002,170.667z M320.002,298.667v-85.333
				c23.567,0,42.667,19.099,42.667,42.667S343.569,298.667,320.002,298.667z"/>
		</g>
	</g>
</g>
<g>
</g>
<g>
</g>
<g>
</g>
<g>
</g>
<g>
</g>
<g>
</g>
<g>
</g>
<g>
</g>
<g>
</g>
<g>
</g>
<g>
</g>
<g>
</g>
<g>
</g>
<g>
</g>
<g>
</g>
</svg>
