<?xml version="1.0" encoding="iso-8859-1"?>
<!-- Generator: Adobe Illustrator 19.0.0, SVG Export Plug-In . SVG Version: 6.00 Build 0)  -->
<svg version="1.1" id="Layer_1" xmlns="http://www.w3.org/2000/svg" xmlns:xlink="http://www.w3.org/1999/xlink" x="0px" y="0px"
	 viewBox="0 0 512 512" style="enable-background:new 0 0 512 512;" xml:space="preserve">
<g>
	<g>
		<g>
			<path d="M320,213.333v85.333c23.531,0,42.667-19.136,42.667-42.667S343.531,213.333,320,213.333z"/>
			<path d="M445.76,0H66.24C29.739,0,0,29.717,0,66.24v379.52C0,482.283,29.739,512,66.24,512h379.52
				c36.501,0,66.24-29.717,66.24-66.24V66.24C512,29.717,482.261,0,445.76,0z M234.667,320c0,11.776-9.536,21.333-21.333,21.333
				C201.536,341.333,192,331.776,192,320v-42.667h-42.667V320c0,11.776-9.536,21.333-21.333,21.333
				c-11.797,0-21.333-9.557-21.333-21.333V192c0-11.776,9.536-21.333,21.333-21.333c11.797,0,21.333,9.557,21.333,21.333v42.667H192
				V192c0-11.776,9.536-21.333,21.333-21.333c11.797,0,21.333,9.557,21.333,21.333V320z M320,341.333h-21.333
				c-11.797,0-21.333-9.557-21.333-21.333V192c0-11.776,9.536-21.333,21.333-21.333H320c47.061,0,85.333,38.272,85.333,85.333
				S367.061,341.333,320,341.333z"/>
		</g>
	</g>
</g>
<g>
</g>
<g>
</g>
<g>
</g>
<g>
</g>
<g>
</g>
<g>
</g>
<g>
</g>
<g>
</g>
<g>
</g>
<g>
</g>
<g>
</g>
<g>
</g>
<g>
</g>
<g>
</g>
<g>
</g>
</svg>
