<svg height="512pt" viewBox="0 0 512.00053 512" width="512pt" xmlns="http://www.w3.org/2000/svg"><path d="m384.796875 154.730469c6.882813-6.894531 7.679687-17.550781 2.414063-25.328125-.859376-2.222656-2.113282-4.339844-3.808594-6.210938-16.335938-18.046875-38.246094-39.40625-61.847656-59.914062 26.289062 10.921875 54.019531 26.839844 77.175781 49.996094 22.394531 22.394531 38.023437 49.070312 48.902343 74.582031-3.609374-4.21875-7.222656-8.332031-10.820312-12.296875-7.421875-8.179688-20.070312-8.792969-28.25-1.371094-8.179688 7.425781-8.792969 20.074219-1.371094 28.253906 24.902344 27.441406 50.789063 62.257813 67.558594 90.863282 3.722656 6.351562 10.40625 9.890624 17.269531 9.890624 3.4375 0 6.917969-.886718 10.097657-2.75 6.597656-3.867187 10.152343-10.933593 9.867187-18.078124.007813-.527344.015625-1.058594-.019531-1.59375-.277344-4.519532-7.183594-105.183594-71.398438-181.050782l10.578125-10.582031c7.8125-7.808594 7.8125-20.472656 0-28.285156-7.808593-7.808594-20.472656-7.808594-28.285156 0l-10.578125 10.582031c-75.867188-64.214844-176.535156-71.121094-181.054688-71.3984375-.070312-.0039063-.140624 0-.214843-.0039063-.410157-.0195312-.820313-.0195312-1.234375-.0117187-.269532 0-.542969-.0039063-.8125.0117187-.324219.015625-.640625.0546876-.960938.0859378-.351562.035156-.703125.066406-1.050781.117187-.222656.035157-.4375.085938-.65625.128907-.429687.078124-.859375.160156-1.277344.265624-.152343.039063-.304687.09375-.457031.136719-.464844.132813-.929688.269531-1.382812.433594-.167969.058594-.332032.136719-.5.203125-.417969.167969-.839844.332031-1.242188.523438-.269531.128906-.527344.277343-.792969.417968-.289062.152344-.582031.296875-.863281.464844-.375.222656-.730469.46875-1.089844.714844-.160156.109375-.324218.210937-.480468.324218-.40625.292969-.792969.617188-1.175782.945313-.101562.085937-.207031.164063-.308594.253906-.367187.324219-.714843.675781-1.058593 1.03125-.109375.109375-.222657.214844-.328125.328125-.300782.324219-.582032.667969-.863282 1.015625-.136718.167969-.277343.332031-.410156.507813-.234375.3125-.453125.640625-.671875.96875-.152343.230468-.308593.453125-.453125.691406-.0625.097656-.136718.191406-.195312.292969-.136719.238281-.246094.480469-.371094.71875-.128906.234375-.253906.46875-.371094.710937-.191406.394532-.359375.792969-.523437 1.195313-.074219.1875-.152344.371093-.222657.5625-.179687.480469-.332031.960937-.472656 1.449219-.03125.121093-.070312.242187-.101562.363281-.152344.570312-.273438 1.140625-.375 1.71875-.007813.058593-.019532.113281-.03125.171875-.105469.644531-.175782 1.289062-.21875 1.933594 0 .011718-.003906.027343-.003906.039062v.019531c-.039063.65625-.050782 1.3125-.023438 1.964844v.082031c.027344.621094.082031 1.234375.164062 1.847656.007813.054688.011719.113282.019532.167969.082031.589844.199218 1.167969.332031 1.746094.015625.0625.027344.128906.042969.191406.144531.605469.324218 1.199219.527344 1.789063.007812.019531.011718.039062.019531.0625 1.234375 3.519531 3.460937 6.703125 6.546875 9.113281.058594.046875.113281.097656.171875.140625.378906.289062.78125.5625 1.1875.828125.167969.109375.332031.226563.503906.332031.117187.070313.21875.152344.335937.21875 39.695313 23.269532 90.667969 67.5625 123.808594 102.027344l-88.433594 88.558594-73.445312-72.804688 42.25-41.78125c3.84375-3.800781 5.984375-9 5.9375-14.40625-.050781-5.40625-2.289062-10.5625-6.203125-14.292968l-25.382813-24.195313c-.167968-.160156-.339843-.316406-.515624-.472656-21.339844-18.964844-43.898438-34.121094-67.050782-45.050781-.382812-.183594-.773437-.351563-1.167968-.507813-23.980469-9.507813-49.214844-14.328125-75.003907-14.328125-30.148437 0-54.675781 24.589844-54.675781 54.816406v.570313c0 26.851562 5.15625 53.058593 15.328125 77.894531 10.167969 24.839844 24.867187 47.117188 43.683594 66.210938l.101562.101562 24.527344 24.542969c3.90625 3.90625 9.027344 5.863281 14.148437 5.863281 5.082032 0 10.164063-1.925781 14.0625-5.78125l41.519532-41.058594 73.625 72.980469-131.273438 131.457031c-9.175781-4.921875-19.464844-7.535156-30.160156-7.535156-17.261719 0-33.480469 6.804688-45.660156 19.15625-.101563.105469-.203125.207031-.300782.3125l-14.144531 14.980469c-7.390625 7.828125-7.257812 20.105469.300781 27.773437l62.863282 63.757813c3.761718 3.8125 8.890625 5.957031 14.242187 5.957031h.226563c5.433594-.0625 10.609375-2.332031 14.332031-6.289062l13.980469-14.847657c19.695312-20.132812 23.683594-50.195312 11.996094-74.367187zm-286.925781 27.058593-10.421875-10.429687c-30.597657-31.074219-47.449219-72.257813-47.449219-115.972656v-.570313c0-8.167968 6.585938-14.816406 14.675781-14.816406 20.507813 0 40.578125 3.792969 59.671875 11.277344 19.414063 9.242187 38.492188 22.117187 56.726563 38.28125l10.21875 9.738281-27.886719 27.574219-28.324219-28.074219c-7.847656-7.777344-20.507812-7.71875-28.285156.125s-7.71875 20.507813.125 28.28125l28.039063 27.796875zm-15.125 281.171876c-.074219.070312-.144532.144531-.214844.21875l-34.742188-35.238282.726563-.769531c4.589844-4.585937 10.636719-7.109375 17.050781-7.109375 6.472656 0 12.574219 2.570312 17.179688 7.242188 9.691406 9.828124 9.691406 25.824218 0 35.65625zm423.429687-47.933594-14.0625-14.125c-.042969-.042969-.085937-.085938-.132812-.128906-20.445313-20.160157-50.191407-24.128907-74.304688-11.917969l-91.699219-90.945313c-7.84375-7.777344-20.507812-7.726562-28.285156.113282-7.777344 7.84375-7.726562 20.507812.117188 28.285156l90.722656 89.980468c-4.917969 9.175782-7.53125 19.460938-7.53125 30.148438 0 17.226562 6.773438 33.410156 19.078125 45.582031l13.972656 14.070313c3.90625 3.9375 9.046875 5.910156 14.191407 5.910156 5.070312 0 10.148437-1.917969 14.042968-5.757812l63.757813-62.863282c3.789062-3.734375 5.933593-8.828125 5.957031-14.148437.023438-5.320313-2.070312-10.429688-5.824219-14.203125zm-77.78125 48.738281c-.050781-.050781-.101562-.101563-.148437-.148437-4.671875-4.605469-7.242188-10.707032-7.242188-17.179688 0-5.296875 1.71875-10.34375 4.90625-14.527344 1.191406-.757812 2.3125-1.644531 3.335938-2.652344 9.792968-9.65625 24.519531-9.738281 34.398437-.246093zm0 0"/></svg>