<?xml version="1.0" encoding="iso-8859-1"?>
<!-- Generator: Adobe Illustrator 19.0.0, SVG Export Plug-In . SVG Version: 6.00 Build 0)  -->
<svg version="1.1" id="Capa_1" xmlns="http://www.w3.org/2000/svg" xmlns:xlink="http://www.w3.org/1999/xlink" x="0px" y="0px"
	 viewBox="0 0 512 512" style="enable-background:new 0 0 512 512;" xml:space="preserve">
<g>
	<g>
		<g>
			<path d="M462,167.146v-13.324C462,78.654,400.846,17.5,325.678,17.5c-32.732,0-64.381,11.776-89.115,33.16
				c-16.364,14.147-29.026,31.881-37.093,51.591C187.067,95.914,173.217,92.5,159,92.5c-49.075,0-89,39.925-89,89v18.187
				C29.978,208.662,0,244.18,0,286.5c0,20.586,6.988,40.612,19.678,56.392c12.679,15.767,30.535,26.697,50.277,30.775
				c1.365,0.282,2.724,0.418,4.066,0.418c9.287-0.001,17.613-6.506,19.566-15.958c2.234-10.818-4.724-21.398-15.541-23.633
				C55.646,329.867,40,310.131,40,286.5c0-27.019,22.36-49,49.846-49H90c11.046,0,20-8.954,20-20v-36c0-27.019,21.981-49,49-49
				c14.035,0,27.427,6.052,36.742,16.604c5.133,5.815,13.167,8.142,20.612,5.959c7.445-2.179,12.958-8.466,14.146-16.132
				c7.193-46.423,48.111-81.431,95.178-81.431C378.79,57.5,422,100.71,422,153.822v24.598c0,7.4,4.087,14.196,10.624,17.666
				C456.912,208.977,472,234.042,472,261.5c0,30.69-19.299,58.547-48.022,69.317c-10.343,3.878-15.583,15.406-11.705,25.748
				c3.01,8.03,10.631,12.984,18.729,12.984c2.333,0,4.706-0.412,7.019-1.279c21.507-8.063,39.898-22.282,53.185-41.117
				C504.81,307.87,512,285.168,512,261.5C512,223.368,493.119,188.237,462,167.146z"/>
			<path d="M256,254.5c-66.168,0-120,53.832-120,120s53.832,120,120,120s120-53.832,120-120S322.168,254.5,256,254.5z M176,374.5
				c0-44.112,35.888-80,80-80c14.083,0,27.319,3.671,38.825,10.086L186.086,413.325C179.671,401.819,176,388.583,176,374.5z
				 M256,454.5c-15.543,0-30.055-4.471-42.346-12.172l110.174-110.174C331.529,344.445,336,358.957,336,374.5
				C336,418.612,300.112,454.5,256,454.5z"/>
		</g>
	</g>
</g>
<g>
</g>
<g>
</g>
<g>
</g>
<g>
</g>
<g>
</g>
<g>
</g>
<g>
</g>
<g>
</g>
<g>
</g>
<g>
</g>
<g>
</g>
<g>
</g>
<g>
</g>
<g>
</g>
<g>
</g>
</svg>
