<svg height="512pt" viewBox="-66 0 512 512" width="512pt" xmlns="http://www.w3.org/2000/svg"><path d="m189.980469 512c-15.375 0-30.753907-5.847656-42.460938-17.539062l-132.824219-132.664063c-14.398437-14.378906-18.648437-35.882813-10.828124-54.78125 7.796874-18.832031 25.933593-31 46.207031-31h120.90625v-256.015625c0-11.046875 8.953125-20 20-20s20 8.953125 20 20v256.015625c0 22.058594-17.945313 40.003906-40 40.003906h-120.90625c-5.992188 0-8.460938 4.402344-9.246094 6.292969-.796875 1.925781-2.183594 6.871094 2.136719 11.183594l132.824218 132.664062c7.824219 7.8125 20.558594 7.8125 28.382813 0l132.824219-132.664062c4.320312-4.3125 2.929687-9.257813 2.132812-11.183594-.78125-1.890625-3.25-6.292969-9.242187-6.292969h-43.03125c-11.046875 0-20-8.957031-20-20.003906s8.953125-20 20-20h43.03125c20.273437 0 38.410156 12.167969 46.203125 31 7.824218 18.898437 3.574218 40.402344-10.824219 54.78125l-132.824219 132.664063c-11.707031 11.691406-27.082031 17.539062-42.460937 17.539062zm0 0"/></svg>