<?xml version="1.0" encoding="utf-8"?>
<!-- Generator: Adobe Illustrator 16.0.0, SVG Export Plug-In . SVG Version: 6.00 Build 0)  -->
<!DOCTYPE svg PUBLIC "-//W3C//DTD SVG 1.1//EN" "http://www.w3.org/Graphics/SVG/1.1/DTD/svg11.dtd">
<svg version="1.1"
	 id="svg2" xmlns:dc="http://purl.org/dc/elements/1.1/" xmlns:cc="http://creativecommons.org/ns#" xmlns:rdf="http://www.w3.org/1999/02/22-rdf-syntax-ns#" xmlns:svg="http://www.w3.org/2000/svg" xmlns:sodipodi="http://sodipodi.sourceforge.net/DTD/sodipodi-0.dtd" xmlns:inkscape="http://www.inkscape.org/namespaces/inkscape" inkscape:version="0.48.2 r9819" sodipodi:docname="bitcoin-logo-noshadow.svg"
	 xmlns="http://www.w3.org/2000/svg" xmlns:xlink="http://www.w3.org/1999/xlink" x="0px" y="0px" width="1024px" height="1024px"
	 viewBox="0 0 1024 1024" enable-background="new 0 0 1024 1024" xml:space="preserve">
<linearGradient id="SVGID_1_" gradientUnits="userSpaceOnUse" x1="209.4766" y1="679.7236" x2="209.4765" y2="142.5815">
	<stop  offset="0" style="stop-color:#181818"/>
	<stop  offset="0.9405" style="stop-color:#000000"/>
</linearGradient>
<path fill-rule="evenodd" clip-rule="evenodd" fill="url(#SVGID_1_)" d="M209.478,72.132c38.551,0,69.804,31.67,69.804,70.738
	v668.246c0,39.068-31.253,70.738-69.804,70.738c-38.553,0-69.807-31.67-69.807-70.738V142.87
	C139.671,103.802,170.925,72.132,209.478,72.132z"/>
<linearGradient id="SVGID_2_" gradientUnits="userSpaceOnUse" x1="708.3867" y1="679.7236" x2="708.3867" y2="142.5815">
	<stop  offset="0" style="stop-color:#000000"/>
	<stop  offset="1" style="stop-color:#181818"/>
</linearGradient>
<path fill-rule="evenodd" clip-rule="evenodd" fill="url(#SVGID_2_)" d="M708.389,72.132c38.551,0,69.804,31.67,69.804,70.738
	v668.246c0,39.068-31.253,70.738-69.804,70.738c-38.554,0-69.807-31.67-69.807-70.738V142.87
	C638.582,103.802,669.835,72.132,708.389,72.132z"/>
<radialGradient id="SVGID_3_" cx="460.9243" cy="476.2344" r="367.6479" gradientUnits="userSpaceOnUse">
	<stop  offset="0" style="stop-color:#FFEC00"/>
	<stop  offset="0.9405" style="stop-color:#FFC200"/>
</radialGradient>
<path fill-rule="evenodd" clip-rule="evenodd" fill="url(#SVGID_3_)" d="M168.071,81.514c31.303-23.4,75.649-16.996,99.05,14.306
	l500.963,676.088c23.402,31.301,16.997,75.646-14.307,99.047c-31.301,23.4-75.647,16.994-99.05-14.307L153.764,180.561
	C130.362,149.259,136.767,104.915,168.071,81.514z"/>
</svg>
